# xmcd CD database file
#
# Track frame offsets:
#	150
#	23632
#	53555
#	90532
#	132975
#	154832
#	183651
#	211228
#	230448
#	252478
#
# Disc length: 4190 seconds
#
# Revision: 0
# Processed by: cddbd v1.5PL3 Copyright (c) Steve Scherf et al.
# Submitted via: CDex 1.51
#
DISCID=80105c0a
DTITLE=RAD. - Live at the New Morning, Paris
DYEAR=2003
DGENRE=Jazz
TTITLE0=Trippin'
TTITLE1=Homegirls Cha Cha Network
TTITLE2=Be Free
TTITLE3=Butterfly
TTITLE4=Wishy
TTITLE5=Mean and Lean
TTITLE6=You've Got A Friend
TTITLE7=Before We Say Goodbye
TTITLE8=A Little Love Will Help
TTITLE9=Mean and Lean Live Video
EXTD=YEAR: 2003
EXTT0=
EXTT1=
EXTT2=
EXTT3=
EXTT4=
EXTT5=
EXTT6=
EXTT7=
EXTT8=
EXTT9=
PLAYORDER=
